<svg width="28" height="25" viewBox="0 0 28 25" fill="none" xmlns="http://www.w3.org/2000/svg">
<path fill-rule="evenodd" clip-rule="evenodd" d="M7.8036 1.85556C8.1871 1.28481 8.70671 0.816828 9.31629 0.493133C9.92588 0.169439 10.6066 4.98313e-05 11.298 0H16.702C17.3934 4.98313e-05 18.0741 0.169439 18.6837 0.493133C19.2933 0.816828 19.8129 1.28481 20.1964 1.85556L21.3332 3.54861C21.4611 3.73877 21.6343 3.89468 21.8375 4.00249C22.0407 4.11031 22.2676 4.1667 22.498 4.16667H23.8C24.9139 4.16667 25.9822 4.60565 26.7698 5.38705C27.5575 6.16846 28 7.22826 28 8.33333V20.8333C28 21.9384 27.5575 22.9982 26.7698 23.7796C25.9822 24.561 24.9139 25 23.8 25H4.2C3.08609 25 2.0178 24.561 1.23015 23.7796C0.442499 22.9982 0 21.9384 0 20.8333V8.33333C0 7.22826 0.442499 6.16846 1.23015 5.38705C2.0178 4.60565 3.08609 4.16667 4.2 4.16667H5.502C5.73243 4.1667 5.9593 4.11031 6.1625 4.00249C6.36569 3.89468 6.53891 3.73877 6.6668 3.54861L7.8036 1.85556ZM11.2 13.8889C11.2 13.1522 11.495 12.4456 12.0201 11.9247C12.5452 11.4038 13.2574 11.1111 14 11.1111C14.7426 11.1111 15.4548 11.4038 15.9799 11.9247C16.505 12.4456 16.8 13.1522 16.8 13.8889C16.8 14.6256 16.505 15.3321 15.9799 15.8531C15.4548 16.374 14.7426 16.6667 14 16.6667C13.2574 16.6667 12.5452 16.374 12.0201 15.8531C11.495 15.3321 11.2 14.6256 11.2 13.8889ZM14 8.33333C12.5148 8.33333 11.0904 8.91865 10.0402 9.96052C8.99 11.0024 8.4 12.4155 8.4 13.8889C8.4 15.3623 8.99 16.7754 10.0402 17.8173C11.0904 18.8591 12.5148 19.4444 14 19.4444C15.4852 19.4444 16.9096 18.8591 17.9598 17.8173C19.01 16.7754 19.6 15.3623 19.6 13.8889C19.6 12.4155 19.01 11.0024 17.9598 9.96052C16.9096 8.91865 15.4852 8.33333 14 8.33333Z" fill="#7C7B73"/>
</svg>
