<svg width="28" height="25" viewBox="0 0 28 25" fill="none" xmlns="http://www.w3.org/2000/svg">
<path d="M7.97807 3.83722L7.97869 3.83629L9.24118 1.93945C9.24122 1.93939 9.24126 1.93933 9.2413 1.93927C9.43414 1.6503 9.69531 1.41339 10.0016 1.24954C10.308 1.08566 10.6502 0.999948 10.9976 1H10.9978H17.0022H17.0024C17.3498 0.999948 17.692 1.08566 17.9984 1.24954C18.3047 1.41339 18.5659 1.6503 18.7587 1.93927C18.7587 1.93933 18.7588 1.93939 18.7588 1.93945L20.0213 3.83629L20.0219 3.83722C20.3975 4.4001 20.9061 4.86158 21.5028 5.18071C22.0994 5.49982 22.7656 5.66674 23.4422 5.66667C23.4423 5.66667 23.4423 5.66667 23.4424 5.66667H24.8889C25.4488 5.66667 25.9858 5.88909 26.3817 6.285C26.7776 6.68091 27 7.21788 27 7.77778V21.7778C27 22.3377 26.7776 22.8746 26.3817 23.2706C25.9858 23.6665 25.4488 23.8889 24.8889 23.8889H3.11111C2.55121 23.8889 2.01424 23.6665 1.61833 23.2706C1.22242 22.8746 1 22.3377 1 21.7778V7.77778C1 7.21788 1.22242 6.68091 1.61833 6.285C2.01424 5.88909 2.55121 5.66667 3.11111 5.66667H4.55763C4.55768 5.66667 4.55773 5.66667 4.55778 5.66667C5.23438 5.66674 5.90055 5.49982 6.49718 5.18071C7.09385 4.86158 7.60253 4.4001 7.97807 3.83722Z" stroke="#7C7B73" stroke-width="2" stroke-linecap="round" stroke-linejoin="round"/>
<path d="M17.6663 14.0002C17.6663 16.0252 16.0247 17.6668 13.9997 17.6668C11.9746 17.6668 10.333 16.0252 10.333 14.0002C10.333 11.9751 11.9746 10.3335 13.9997 10.3335C16.0247 10.3335 17.6663 11.9751 17.6663 14.0002Z" stroke="#7C7B73" stroke-width="2" stroke-linecap="round" stroke-linejoin="round"/>
</svg>
