<svg width="23" height="25" viewBox="0 0 23 25" fill="none" xmlns="http://www.w3.org/2000/svg">
<path d="M0 23.375V9.25089C0 8.8349 0.0941904 8.44112 0.282571 8.06955C0.470952 7.69798 0.730524 7.39194 1.06129 7.15145L9.90807 0.524863C10.3714 0.174955 10.9004 0 11.4951 0C12.0898 0 12.6221 0.174955 13.0919 0.524863L21.9387 7.14982C22.2706 7.39032 22.5301 7.69689 22.7174 8.06955C22.9058 8.44112 23 8.8349 23 9.25089V23.375C23 23.8105 22.8363 24.1902 22.5088 24.5141C22.1813 24.838 21.7974 25 21.3571 25H15.7977C15.421 25 15.1055 24.8743 14.8514 24.623C14.5973 24.3706 14.4703 24.0586 14.4703 23.687V15.9376C14.4703 15.566 14.3432 15.2546 14.0891 15.0032C13.834 14.7508 13.5185 14.6246 13.1429 14.6246H9.85714C9.48148 14.6246 9.1666 14.7508 8.9125 15.0032C8.65731 15.2546 8.52972 15.566 8.52972 15.9376V23.6887C8.52972 24.0602 8.40267 24.3717 8.14857 24.623C7.89448 24.8743 7.5796 25 7.20393 25H1.64286C1.20257 25 0.81869 24.838 0.491214 24.5141C0.163738 24.1902 0 23.8105 0 23.375Z" fill="#7C7B73"/>
</svg>
