<svg width="26" height="25" viewBox="0 0 26 25" fill="none" xmlns="http://www.w3.org/2000/svg">
<path d="M13 11.336C11.4685 11.336 10.1567 10.7805 9.06471 9.66934C7.97271 8.55824 7.42733 7.22415 7.42857 5.66709C7.42981 4.11002 7.97519 2.77468 9.06471 1.66105C10.1542 0.547418 11.466 -0.00624566 13 5.31396e-05C14.534 0.00635194 15.8458 0.560646 16.9353 1.66294C18.0248 2.76523 18.5702 4.10057 18.5714 5.66897C18.5727 7.23738 18.0273 8.57146 16.9353 9.67123C15.8433 10.771 14.5315 11.3247 13 11.336ZM0 23.0386V21.8897C0 21.1099 0.222857 20.3805 0.668572 19.7014C1.11552 19.0212 1.716 18.4933 2.47 18.1179C4.22314 17.2626 5.97752 16.6213 7.73314 16.1943C9.48752 15.766 11.2431 15.5518 13 15.5518C14.7569 15.5518 16.5131 15.766 18.2687 16.1943C20.0243 16.6226 21.7775 17.2638 23.5281 18.1179C24.2834 18.4933 24.8839 19.0212 25.3296 19.7014C25.7765 20.3805 26 21.1099 26 21.8897V23.0386C26 23.5928 25.8149 24.059 25.4447 24.4369C25.0745 24.8123 24.6164 25 24.0704 25H1.93143C1.38543 25 0.927334 24.8117 0.557143 24.435C0.186953 24.0583 0.0012381 23.5941 0 23.0386ZM1.85714 23.1104H24.1429V21.8878C24.1429 21.4695 24.0098 21.0758 23.7436 20.7067C23.4786 20.3389 23.1115 20.0277 22.6423 19.7733C21.1145 19.0199 19.5384 18.4429 17.914 18.0423C16.2896 17.6417 14.6516 17.4414 13 17.4414C11.3484 17.4414 9.71038 17.6417 8.086 18.0423C6.46162 18.4429 4.88552 19.0199 3.35771 19.7733C2.88724 20.0277 2.52014 20.3389 2.25643 20.7067C1.99024 21.0758 1.85714 21.4701 1.85714 21.8897V23.1104ZM13 9.44637C14.0214 9.44637 14.8961 9.076 15.6241 8.33526C16.3521 7.59452 16.7155 6.7045 16.7143 5.6652C16.713 4.62589 16.3497 3.7365 15.6241 2.99702C14.8986 2.25754 14.0239 1.88717 13 1.88591C11.9761 1.88465 11.102 2.25502 10.3777 2.99702C9.65343 3.73902 9.28943 4.62841 9.28571 5.6652C9.282 6.70198 9.646 7.592 10.3777 8.33526C11.1094 9.07852 11.9835 9.44826 13 9.44448" fill="#7C7B73"/>
</svg>
