<svg width="25" height="25" viewBox="0 0 25 25" fill="none" xmlns="http://www.w3.org/2000/svg">
<mask id="path-1-inside-1_33_12" fill="white">
<path d="M13.4615 0H3.84615C3.33612 0 2.84698 0.202609 2.48633 0.563256C2.12569 0.923903 1.92308 1.41305 1.92308 1.92308V19.2308L0 25L7.69231 23.0769H23.0769C23.587 23.0769 24.0761 22.8743 24.4367 22.5137C24.7974 22.153 25 21.6639 25 21.1538V11.5385"/>
</mask>
<path d="M13.4615 2C14.5661 2 15.4615 1.10457 15.4615 0C15.4615 -1.10457 14.5661 -2 13.4615 -2V2ZM3.84615 0L3.84615 -2L3.84615 0ZM1.92308 1.92308H-0.0769231H1.92308ZM1.92308 19.2308L3.82044 19.8632C3.88842 19.6593 3.92308 19.4457 3.92308 19.2308H1.92308ZM0 25L-1.89737 24.3675C-2.1282 25.06 -1.96342 25.8233 -1.46744 26.3589C-0.971472 26.8945 -0.223097 27.1173 0.485071 26.9403L0 25ZM7.69231 23.0769V21.0769C7.52878 21.0769 7.36588 21.097 7.20724 21.1366L7.69231 23.0769ZM27 11.5385C27 10.4339 26.1046 9.53846 25 9.53846C23.8954 9.53846 23 10.4339 23 11.5385H27ZM13.4615 -2H3.84615V2H13.4615V-2ZM3.84615 -2C2.80569 -2 1.80784 -1.58668 1.07212 -0.850957L3.90055 1.97747C3.88612 1.9919 3.86655 2 3.84615 2L3.84615 -2ZM1.07212 -0.850957C0.3364 -0.115238 -0.0769231 0.882612 -0.0769231 1.92308L3.92308 1.92308C3.92308 1.94348 3.91497 1.96304 3.90055 1.97747L1.07212 -0.850957ZM-0.0769231 1.92308V19.2308H3.92308V1.92308H-0.0769231ZM0.0257103 18.5983L-1.89737 24.3675L1.89737 25.6325L3.82044 19.8632L0.0257103 18.5983ZM0.485071 26.9403L8.17738 25.0172L7.20724 21.1366L-0.485071 23.0597L0.485071 26.9403ZM7.69231 25.0769H23.0769V21.0769H7.69231V25.0769ZM23.0769 25.0769C24.1174 25.0769 25.1152 24.6636 25.851 23.9279L23.0225 21.0995C23.037 21.085 23.0565 21.0769 23.0769 21.0769V25.0769ZM25.851 23.9279C26.5867 23.1922 27 22.1943 27 21.1538H23C23 21.1334 23.0081 21.1139 23.0225 21.0995L25.851 23.9279ZM27 21.1538V11.5385H23V21.1538H27Z" fill="#7C7B73" mask="url(#path-1-inside-1_33_12)"/>
<path d="M20.1158 1.52989L20.1159 1.5299L20.1202 1.52549C20.206 1.43897 20.3081 1.3703 20.4206 1.32343C20.5331 1.27657 20.6538 1.25244 20.7756 1.25244C20.8975 1.25244 21.0181 1.27657 21.1306 1.32343C21.2431 1.3703 21.3452 1.43897 21.431 1.52549L21.431 1.52549L21.4339 1.52839L23.4724 3.56685L23.4724 3.56686L23.4753 3.56975C23.5618 3.65556 23.6305 3.75765 23.6773 3.87014C23.7242 3.98262 23.7483 4.10327 23.7483 4.22513C23.7483 4.34699 23.7242 4.46764 23.6773 4.58012C23.6305 4.69261 23.5618 4.7947 23.4753 4.88052L23.4752 4.8805L23.4709 4.88491L14.6351 13.7582L10.5691 14.4901L11.2484 10.3598L20.1158 1.52989Z" stroke="#7C7B73" stroke-width="2" stroke-linecap="round" stroke-linejoin="round"/>
</svg>
